<svg xmlns="http://www.w3.org/2000/svg" viewBox="0 0 363 379"><defs><style>.a{fill:#69c;}</style></defs><title>ozon-svg</title><path class="a" d="M115.83,178.28a57.17,57.17,0,0,1-25.6-5.65,61.44,61.44,0,0,1-19.76-15.34,71.92,71.92,0,0,1-12.81-21.84,71,71,0,0,1-4.51-24.94,70.2,70.2,0,0,1,18-47.16,64.75,64.75,0,0,1,20-15.06A56.37,56.37,0,0,1,116,42.74a55.8,55.8,0,0,1,25.6,5.83A61.92,61.92,0,0,1,161.3,64.2,74.57,74.57,0,0,1,174,86a70.56,70.56,0,0,1-.18,50.17,70.45,70.45,0,0,1-13.18,21.65,62.28,62.28,0,0,1-20,15A57.11,57.11,0,0,1,115.83,178.28ZM66.32,110.51a62.1,62.1,0,0,0,3.58,21,56.82,56.82,0,0,0,10.17,17.88,49.64,49.64,0,0,0,15.72,12.43,43.82,43.82,0,0,0,20,4.61,43.64,43.64,0,0,0,20.62-4.8,49.83,49.83,0,0,0,15.62-12.8,57.86,57.86,0,0,0,9.89-18,63.05,63.05,0,0,0,3.38-20.33,61.61,61.61,0,0,0-3.57-20.9,57.73,57.73,0,0,0-10.26-17.88A49.23,49.23,0,0,0,135.79,59.3a44,44,0,0,0-20-4.51,43.84,43.84,0,0,0-20.42,4.7A48.68,48.68,0,0,0,79.78,72.2a59.2,59.2,0,0,0-10,18A61.08,61.08,0,0,0,66.32,110.51Z"/><path d="M185.25,168,281,56.35H186.84V44.68H297V55L202.49,166.67H296.8v11.67H185.25Z"/><path d="M115.83,331.28a57.17,57.17,0,0,1-25.6-5.65,61.44,61.44,0,0,1-19.76-15.34,71.92,71.92,0,0,1-12.81-21.84,71,71,0,0,1-4.51-24.94,70.2,70.2,0,0,1,18-47.16,64.75,64.75,0,0,1,20-15.06A56.37,56.37,0,0,1,116,195.74a55.8,55.8,0,0,1,25.6,5.83A61.92,61.92,0,0,1,161.3,217.2,74.57,74.57,0,0,1,174,239a70.56,70.56,0,0,1-.18,50.17,70.45,70.45,0,0,1-13.18,21.65,62.28,62.28,0,0,1-20,15A57.11,57.11,0,0,1,115.83,331.28ZM66.32,263.51a62.1,62.1,0,0,0,3.58,21,56.82,56.82,0,0,0,10.17,17.88,49.64,49.64,0,0,0,15.72,12.43,43.82,43.82,0,0,0,20,4.61,43.64,43.64,0,0,0,20.62-4.8,49.83,49.83,0,0,0,15.62-12.8,57.86,57.86,0,0,0,9.89-18,63.05,63.05,0,0,0,3.38-20.33,61.61,61.61,0,0,0-3.57-20.9,57.73,57.73,0,0,0-10.26-17.88,49.23,49.23,0,0,0-15.72-12.43,44,44,0,0,0-20-4.51,43.84,43.84,0,0,0-20.42,4.7A48.68,48.68,0,0,0,79.78,225.2a59.2,59.2,0,0,0-10,18A61.08,61.08,0,0,0,66.32,263.51Z"/><path class="a" d="M194.3,209l94.79,104.59V210.73H299v120.4h-8.79L195.42,227.84V330.92h-9.91V209Z"/></svg>