<svg xmlns="http://www.w3.org/2000/svg" viewBox="0 0 567 177"><defs><style>.a{fill:#69c;}</style></defs><title>Artboard 6 copy</title><path class="a" d="M79.83,155.28a57.17,57.17,0,0,1-25.6-5.65,61.44,61.44,0,0,1-19.76-15.34,71.92,71.92,0,0,1-12.81-21.84,71,71,0,0,1-4.51-24.94,70.2,70.2,0,0,1,18-47.16A64.75,64.75,0,0,1,55.17,25.29,56.37,56.37,0,0,1,80,19.74a55.8,55.8,0,0,1,25.6,5.83A61.92,61.92,0,0,1,125.3,41.2,74.57,74.57,0,0,1,138,63a70.56,70.56,0,0,1-.18,50.17,70.45,70.45,0,0,1-13.18,21.65,62.28,62.28,0,0,1-20,15A57.11,57.11,0,0,1,79.83,155.28ZM30.32,87.51a62.1,62.1,0,0,0,3.58,21,56.82,56.82,0,0,0,10.17,17.88,49.64,49.64,0,0,0,15.72,12.43,43.82,43.82,0,0,0,20,4.61,43.64,43.64,0,0,0,20.62-4.8,49.83,49.83,0,0,0,15.62-12.8,57.86,57.86,0,0,0,9.89-18,63.05,63.05,0,0,0,3.38-20.33,61.61,61.61,0,0,0-3.57-20.9,57.73,57.73,0,0,0-10.26-17.88A49.23,49.23,0,0,0,99.79,36.3a44,44,0,0,0-20-4.51,43.84,43.84,0,0,0-20.42,4.7A48.68,48.68,0,0,0,43.78,49.2a59.2,59.2,0,0,0-10,18A61.08,61.08,0,0,0,30.32,87.51Z"/><path d="M149.25,145,245,33.35H150.84V21.68H261V32L166.49,143.67H260.8v11.67H149.25Z"/><path class="a" d="M325.83,155.28a57.17,57.17,0,0,1-25.6-5.65,61.44,61.44,0,0,1-19.76-15.34,71.92,71.92,0,0,1-12.81-21.84,71,71,0,0,1-4.51-24.94,70.2,70.2,0,0,1,18-47.16,64.75,64.75,0,0,1,20.05-15.06A56.37,56.37,0,0,1,326,19.74a55.8,55.8,0,0,1,25.6,5.83A61.92,61.92,0,0,1,371.3,41.2,74.57,74.57,0,0,1,384,63a70.56,70.56,0,0,1-.18,50.17,70.45,70.45,0,0,1-13.18,21.65,62.28,62.28,0,0,1-20,15A57.11,57.11,0,0,1,325.83,155.28ZM276.32,87.51a62.1,62.1,0,0,0,3.58,21,56.82,56.82,0,0,0,10.17,17.88,49.64,49.64,0,0,0,15.72,12.43,46.28,46.28,0,0,0,40.66-.19,49.83,49.83,0,0,0,15.62-12.8,57.86,57.86,0,0,0,9.89-18,63.05,63.05,0,0,0,3.38-20.33,61.61,61.61,0,0,0-3.57-20.9,57.73,57.73,0,0,0-10.26-17.88A49.23,49.23,0,0,0,345.79,36.3a46.57,46.57,0,0,0-40.38.19A48.68,48.68,0,0,0,289.78,49.2a59.2,59.2,0,0,0-10,18A61.08,61.08,0,0,0,276.32,87.51Z"/><path d="M416.3,22l94.79,114.76V23.9H521V156h-8.79L417.42,42.67V155.76h-9.91V22Z"/></svg>