<svg xmlns="http://www.w3.org/2000/svg" viewBox="0 0 125.38 135.54"><defs><style>.a{fill:#69c;}</style></defs><title>Asset 1</title><path class="a" d="M62.69,135.54a57.27,57.27,0,0,1-25.6-5.64,61.26,61.26,0,0,1-19.77-15.35A71.89,71.89,0,0,1,4.52,92.71,71,71,0,0,1,0,67.77,70.28,70.28,0,0,1,18,20.61,64.79,64.79,0,0,1,38,5.55,56.31,56.31,0,0,1,62.88,0a55.83,55.83,0,0,1,25.6,5.83,62.27,62.27,0,0,1,19.67,15.63A74.65,74.65,0,0,1,120.86,43.3a70.49,70.49,0,0,1-.19,50.17,70.69,70.69,0,0,1-13.18,21.65,62.46,62.46,0,0,1-19.95,15A57.14,57.14,0,0,1,62.69,135.54ZM13.18,67.77a62.1,62.1,0,0,0,3.58,21,57,57,0,0,0,10.16,17.89,49.61,49.61,0,0,0,15.72,12.42,43.77,43.77,0,0,0,20,4.61,43.63,43.63,0,0,0,20.61-4.8,49.76,49.76,0,0,0,15.63-12.8,57.61,57.61,0,0,0,9.88-18,62.79,62.79,0,0,0,3.39-20.33,61.28,61.28,0,0,0-3.58-20.89A57.27,57.27,0,0,0,98.36,29,49.12,49.12,0,0,0,82.64,16.57a44,44,0,0,0-20-4.52,43.92,43.92,0,0,0-20.43,4.71,48.48,48.48,0,0,0-15.62,12.7,59.35,59.35,0,0,0-10,18A61.32,61.32,0,0,0,13.18,67.77Z"/></svg>