<svg xmlns="http://www.w3.org/2000/svg" viewBox="0 0 567 177"><defs><style>.a{fill:#69c}</style></defs><path class="a" d="M79.83 155.28a57.17 57.17 0 01-25.6-5.65 61.44 61.44 0 01-19.76-15.34 71.92 71.92 0 01-12.81-21.84 71 71 0 01-4.51-24.94 70.2 70.2 0 0118-47.16 64.75 64.75 0 0120.02-15.06A56.37 56.37 0 0180 19.74a55.8 55.8 0 0125.6 5.83 61.92 61.92 0 0119.7 15.63A74.57 74.57 0 01138 63a70.56 70.56 0 01-.18 50.17 70.45 70.45 0 01-13.18 21.65 62.28 62.28 0 01-20 15 57.11 57.11 0 01-24.81 5.46zM30.32 87.51a62.1 62.1 0 003.58 21 56.82 56.82 0 0010.17 17.88 49.64 49.64 0 0015.72 12.43 43.82 43.82 0 0020 4.61 43.64 43.64 0 0020.62-4.8 49.83 49.83 0 0015.62-12.8 57.86 57.86 0 009.89-18 63.05 63.05 0 003.38-20.33 61.61 61.61 0 00-3.57-20.9 57.73 57.73 0 00-10.26-17.88A49.23 49.23 0 0099.79 36.3a44 44 0 00-20-4.51 43.84 43.84 0 00-20.42 4.7A48.68 48.68 0 0043.78 49.2a59.2 59.2 0 00-10 18 61.08 61.08 0 00-3.46 20.31z"/><path d="M149.25 145L245 33.35h-94.16V21.68H261V32l-94.51 111.67h94.31v11.67H149.25z"/><path class="a" d="M325.83 155.28a57.17 57.17 0 01-25.6-5.65 61.44 61.44 0 01-19.76-15.34 71.92 71.92 0 01-12.81-21.84 71 71 0 01-4.51-24.94 70.2 70.2 0 0118-47.16 64.75 64.75 0 0120.05-15.06 56.37 56.37 0 0124.8-5.55 55.8 55.8 0 0125.6 5.83 61.92 61.92 0 0119.7 15.63A74.57 74.57 0 01384 63a70.56 70.56 0 01-.18 50.17 70.45 70.45 0 01-13.18 21.65 62.28 62.28 0 01-20 15 57.11 57.11 0 01-24.81 5.46zm-49.51-67.77a62.1 62.1 0 003.58 21 56.82 56.82 0 0010.17 17.88 49.64 49.64 0 0015.72 12.43 46.28 46.28 0 0040.66-.19 49.83 49.83 0 0015.62-12.8 57.86 57.86 0 009.89-18 63.05 63.05 0 003.38-20.33 61.61 61.61 0 00-3.57-20.9 57.73 57.73 0 00-10.26-17.88 49.23 49.23 0 00-15.72-12.42 46.57 46.57 0 00-40.38.19 48.68 48.68 0 00-15.63 12.71 59.2 59.2 0 00-10 18 61.08 61.08 0 00-3.46 20.31z"/><path d="M416.3 22l94.79 114.76V23.9H521V156h-8.79L417.42 42.67v113.09h-9.91V22z"/></svg>